# xmcd CD database file
#
# Track frame offsets:
#	150
#	19734
#	39700
#	60462
#	78653
#	98085
#	125839
#	142505
#	159974
#	177357
#	198417
#	219152
#	238192
#	261813
#	289750
#	308696
#
# Disc length: 4346 seconds
#
# Revision: 2
# Processed by: cddbd v1.4b41PL1 Copyright (c) Steve Scherf et al.
# Submitted via: Feurio! 1.50.1ß - http://www.feurio.com
#
DISCID=d810f810
DTITLE=Various Artist - Various Music - Sampler 1
DYEAR=1900
DGENRE=
TTITLE0=Lisa Stansfield - Change
TTITLE1=Ultravox - Hymn
TTITLE2=Fleetwood Mac - Sara
TTITLE3=Genesis - Follow You Follow Me
TTITLE4=Roxette - It Must Have Been Love
TTITLE5=Roxy Music - Jealous Guy
TTITLE6=Barclay James Harvest - Life Is For Living
TTITLE7=Berlin - Take My Breath Away
TTITLE8=Vaya Con Dios - What's a Woman
TTITLE9=Bonfire - You Make Me Feel
TTITLE10=Little Angels - Sail Away
TTITLE11=Take That - Why Can't I Wake Up With You
TTITLE12=Rod Stewart - Maggie May
TTITLE13=Gerry Rafferty - Hearts Run Dry
TTITLE14=Gloria Estefan - Don t Want To Lose You
TTITLE15=Alias - More Than Words Can Say
EXTD=
EXTT0=
EXTT1=
EXTT2=
EXTT3=
EXTT4=
EXTT5=
EXTT6=
EXTT7=
EXTT8=
EXTT9=
EXTT10=
EXTT11=
EXTT12=
EXTT13=
EXTT14=
EXTT15=
PLAYORDER=
